<svg version="1.1" xmlns="http://www.w3.org/2000/svg" viewBox="0 0 224.82310988132235 184.07079721494847" width="224.82310988132235" height="184.07079721494847"><!-- svg-source:excalidraw --><metadata></metadata><defs><style class="style-fonts">
      </style></defs><g stroke-linecap="round"><g transform="translate(38.50152863743267 146.85860179604197) rotate(0 75.41647524844802 -55.255635330546056)" fill-rule="evenodd"><path d="M0.52 0.71 L78.24 24.5 L150.21 -13.4 L152.41 -118.61 L66.11 -133.48 L-1.17 -108.92 L-3.78 2.55" stroke="none" stroke-width="0" fill="#ff6913" fill-rule="evenodd"></path><path d="M0.3 1.41 C32.16 6.08, 63.29 16.42, 80.8 25.68 M0.11 -0.44 C17.37 4.72, 33.65 12.33, 83.48 23.47 M80.11 24.94 C107.59 11.1, 135.37 -2.96, 153.66 -10.19 M80.49 23.83 C104.54 15.52, 128.73 3.7, 148.52 -10.72 M153.57 -12.37 C146.22 -31.87, 150.5 -57.31, 148.26 -115.45 M152.11 -8.37 C152.77 -33.61, 151.79 -59.52, 149.17 -119.69 M153.29 -121.94 C121.41 -125.17, 88.35 -132, 66.88 -134.89 M151.43 -116.51 C126.12 -121.22, 105.02 -126.45, 71.29 -136.11 M66.61 -132.62 C44.8 -122.45, 20.45 -116.38, 4.43 -107.48 M69.29 -134.76 C53.87 -129.39, 41.07 -124.5, -0.5 -108.49 M-0.47 -109.44 C-0.11 -76.65, 3.11 -45.07, -0.58 1.47 M2.27 -108.07 C0.37 -78.77, 0.33 -49.32, -0.62 1.35 M0 0 C0 0, 0 0, 0 0 M0 0 C0 0, 0 0, 0 0" stroke="#000000" stroke-width="1" fill="none"></path></g></g><mask></mask><g stroke-linecap="round"><g transform="translate(120.45249551215636 61.176064687114376) rotate(0 33.884614790866294 37.896263307327445)" fill-rule="evenodd"><path d="M-1.13 -1.97 L67.64 -36.02 L68.17 76.37 L-0.29 108.14 L1.47 -0.97" stroke="none" stroke-width="0" fill="#ff6913" fill-rule="evenodd"></path><path d="M0.65 -2.11 C24.53 -13.04, 46.76 -22.08, 64.13 -30.52 M-0.08 -0.87 C16.87 -6.63, 37.01 -17.48, 69.26 -31.18 M68.31 -34.29 C69.49 -11.97, 70.09 14.17, 68.94 74.36 M67.52 -31.54 C67.5 -9.73, 64.27 11.14, 66.43 77.11 M65.04 78.79 C54.31 85.21, 34.91 92.65, -3.04 105.98 M68.68 76.09 C43.05 87.54, 16.45 99.62, 1.39 109.42 M0.69 107.56 C-3.7 72.56, -4.05 39.98, -0.66 3.96 M-1.37 110.16 C-0.09 75.64, 1.05 39.28, 1.58 -1.91 M0 0 C0 0, 0 0, 0 0 M0 0 C0 0, 0 0, 0 0" stroke="#000000" stroke-width="1" fill="none"></path></g></g><mask></mask><g stroke-linecap="round"><g transform="translate(38.16959041451173 37.38435934770632) rotate(0 41.815075385278135 66.90412061644497)" fill-rule="evenodd"><path d="M-0.13 -3.09 L82.69 24.38 L83.34 133.23 L1.47 107.75 L0.5 -2.53" stroke="none" stroke-width="0" fill="#ff6913" fill-rule="evenodd"></path><path d="M0.51 -0.87 C26.32 10.63, 51.58 19.23, 80.82 24.01 M-0.95 1.75 C24.21 6.92, 47.25 15.71, 80.67 22.79 M85.1 20.9 C86.44 59.05, 84.63 94.12, 79.95 130.52 M83.8 24.38 C80.69 55.26, 81.46 90.39, 82.18 135.47 M85.04 136.69 C62.2 132.13, 42.52 120.8, 2.84 112.48 M83.43 132.54 C51.68 123.63, 24.67 116.72, 0.28 109.95 M-2.36 106.69 C-3.09 85.58, -1.04 67.37, 0.46 1.2 M0.56 109.51 C3.19 64.81, 3.07 22.39, 1.29 -1.49 M0 0 C0 0, 0 0, 0 0 M0 0 C0 0, 0 0, 0 0" stroke="#000000" stroke-width="1" fill="none"></path></g></g><mask></mask><g stroke-linecap="round"><g transform="translate(40.15532945040047 37.10741814735229) rotate(0 25.61173367348283 28.617192216799594)" fill-rule="evenodd"><path d="M0.4 0.58 L78.38 22.94 L57.65 56.27 L-26.94 29.61 L1.55 2.49" stroke="none" stroke-width="0" fill="#ff6913" fill-rule="evenodd"></path><path d="M-1.33 1.79 C15.86 8.56, 37.49 12.18, 77.79 23.36 M1.34 -0.42 C21.42 6.4, 38.48 9.67, 79.19 23.79 M82.09 22.89 C74.33 30.72, 63.51 37.84, 56.06 56.73 M76.95 22.36 C69.54 37.41, 61.13 50.2, 54.78 55.87 M53.62 60.06 C21.61 46.29, -3.87 43.38, -25.06 33.96 M54.52 55.83 C31.29 48.97, 3.85 41.6, -29.27 32.49 M-30.16 31.66 C-20.29 27.68, -11.72 16.19, 3.53 -2.74 M-25.74 30.45 C-15.83 18.06, -5.91 6.51, 0.89 0.74 M0 0 C0 0, 0 0, 0 0 M0 0 C0 0, 0 0, 0 0" stroke="#000000" stroke-width="1" fill="none"></path></g></g><mask></mask><g stroke-linecap="round"><g transform="translate(40.45400856029573 38.302134586933335) rotate(0 25.61173367348283 28.617192216799822)" fill-rule="evenodd"><path d="M-0.29 -0.58 L80.13 22.55 L56.69 54.7 L-25.89 34.64 L-1.97 0.83" stroke="none" stroke-width="0" fill="#ff6913" fill-rule="evenodd"></path><path d="M-3.64 2.41 C20.28 6.06, 42.76 12.23, 76.91 21.61 M1.49 1.75 C29.17 8.43, 61.77 18.82, 77.98 24.93 M79.83 22.08 C70.45 27.83, 68.89 38.28, 58.95 60.26 M77.32 24.84 C69.24 36.01, 61.89 44.07, 57.69 57.94 M53.15 54.49 C28.24 52.84, -3.32 41.57, -26.85 31.74 M57.58 57.93 C37.09 51.35, 15.19 44.53, -28.02 30.96 M-28.1 36.11 C-19.71 25.4, -9.8 13.45, 2.89 1.12 M-25.86 30.24 C-17.39 20.21, -8.47 11.54, 0.79 1.47 M0 0 C0 0, 0 0, 0 0 M0 0 C0 0, 0 0, 0 0" stroke="#000000" stroke-width="1" fill="none"></path></g></g><mask></mask><g stroke-linecap="round"><g transform="translate(119.03376974015589 63.30415334511599) rotate(0 46.2579271449639 0.7840326634739085)" fill-rule="evenodd"><path d="M1.47 -0.97 L68.71 -34.68 L94.07 2.75 L23.65 34.55 L-1.23 -0.56" stroke="none" stroke-width="0" fill="#ff6913" fill-rule="evenodd"></path><path d="M-1.46 0.21 C23.23 -12.06, 45.86 -24.89, 71.7 -29.47 M-1.61 -1.01 C19.06 -9.88, 36.88 -17.71, 66.76 -30.43 M64.53 -35.44 C75.18 -23.26, 84.98 -10.52, 93.67 -3.16 M66.76 -30.48 C72.24 -26, 81.03 -16.09, 93.95 -1.02 M95.35 4.02 C69.59 13.56, 43.01 23.74, 23.08 30.38 M92.79 1.49 C75.79 8.75, 61.68 14.91, 24.59 32.36 M26.07 34.91 C21.88 21.77, 13.86 15.93, 1.57 3.4 M26.9 32.22 C20.47 26.72, 14.86 20.2, -0.93 1.47 M0 0 C0 0, 0 0, 0 0 M0 0 C0 0, 0 0, 0 0" stroke="#000000" stroke-width="1" fill="none"></path></g></g><mask></mask><g stroke-linecap="round"><g transform="translate(119.92980706984008 60.91472046595618) rotate(0 46.2579271449639 0.7840326634739085)" fill-rule="evenodd"><path d="M0.5 -2.53 L69.76 -29.66 L90.55 1.1 L24.38 33.15 L-1.25 2.69" stroke="none" stroke-width="0" fill="#ff6913" fill-rule="evenodd"></path><path d="M-0.87 -0.16 C23.05 -13.56, 52.86 -20.55, 67.36 -29.17 M0.52 0.27 C26.25 -10.35, 51.9 -22.49, 67.89 -31.56 M68.08 -32.65 C76.8 -20.16, 81.61 -18.05, 90.19 -2.42 M66.8 -33.51 C78.13 -19.99, 86.96 -10.13, 93.93 -1.26 M94.89 2.08 C78.1 8.86, 59.49 13.67, 22.8 36.49 M90.68 0.61 C69.63 11.1, 46.79 22.13, 25.37 33.38 M29.14 30.97 C18.2 21.53, 6.66 10.36, -3.4 3.15 M26.51 34.46 C20.72 27.9, 13.76 21, 0.92 -1.74 M0 0 C0 0, 0 0, 0 0 M0 0 C0 0, 0 0, 0 0" stroke="#000000" stroke-width="1" fill="none"></path></g></g><mask></mask><g stroke-linecap="round"><g transform="translate(107.24103470492003 11.907988391816616) rotate(0 -33.97474875053848 22.47560301958697)" fill-rule="evenodd"><path d="M-0.6 -0.7 L-2.43 46.85 L-66.99 26.6 L-4.51 0.88" stroke="none" stroke-width="0" fill="#ff6913" fill-rule="evenodd"></path><path d="M-1.75 -1.91 C3.29 16.64, -1.05 30.91, 3.49 42.51 M-0.68 1.41 C-1.21 13.12, -0.08 23.39, -0.72 43.9 M2.76 48.76 C-13.63 37.93, -31.91 34.46, -65.32 23.5 M1.5 46.44 C-24.33 36.11, -50.4 28.46, -69.32 27.81 M-67.35 25.99 C-44.24 11.75, -17.96 7.14, 0.87 -0.23 M-68.53 25.22 C-44.1 14.98, -18.96 6.19, 1.46 -0.55 M-0.39 -0.73 C-0.26 -0.36, -0.32 -0.11, -0.18 0.12 M-0.49 -0.71 C-0.44 -0.54, -0.24 -0.52, 0 -0.06" stroke="#000000" stroke-width="1" fill="none"></path></g></g><mask></mask><g stroke-linecap="round"><g transform="translate(116.6116584852607 -0.3003705181431542) rotate(332.4805984382883 21.49704877743153 25.393372966996367)" fill-rule="evenodd"><path d="M-1.97 0.83 L62.3 50.22 L-12.12 51.35 L-22.66 38.54 L3.7 3.59" stroke="none" stroke-width="0" fill="#ff6913" fill-rule="evenodd"></path><path d="M3.49 2.68 C17.52 18.62, 40.66 27.46, 61.5 51.83 M-1.45 1.71 C19.25 15.61, 38.76 29.1, 61.88 50.72 M64.69 47.36 C39.78 48.62, 23.36 47.79, -7.54 45.84 M64.97 49.5 C47.67 49.3, 27.64 51.74, -9 49.84 M-12.45 46.58 C-15.99 47.65, -16.71 43.57, -19.01 38.54 M-11.51 47.81 C-14.05 45.85, -15.73 43.71, -20.16 41.92 M-18.96 44.22 C-19.77 34.41, -15.43 24.38, -2.98 1.79 M-21.47 42.29 C-13.02 25.01, -7.04 11.7, -0.3 -0.35 M0 0 C0 0, 0 0, 0 0 M0 0 C0 0, 0 0, 0 0" stroke="#000000" stroke-width="1" fill="none"></path></g></g><mask></mask></svg>