<svg version="1.1" xmlns="http://www.w3.org/2000/svg" viewBox="0 0 111.54196170199657 111.54196170199612" width="111.54196170199657" height="111.54196170199612"><!-- svg-source:excalidraw --><metadata></metadata><defs><style class="style-fonts">
      </style></defs><g stroke-opacity="0" fill-opacity="0" stroke-linecap="round" transform="translate(10.000000000000227 10) rotate(0 45.77098085099817 45.77098085099806)"><path d="M27.05 4.98 C33.64 0.99, 43.58 -0.86, 51.67 0.19 C59.76 1.24, 69.17 5.63, 75.59 11.26 C82 16.89, 87.68 26.09, 90.15 33.96 C92.62 41.82, 92.78 50.6, 90.4 58.46 C88.02 66.32, 82.27 75.75, 75.87 81.12 C69.48 86.48, 60.3 89.52, 52.06 90.63 C43.81 91.73, 33.84 91.2, 26.39 87.76 C18.93 84.31, 11.86 77.16, 7.34 69.98 C2.82 62.8, -0.83 52.84, -0.74 44.67 C-0.64 36.49, 2.82 27.77, 7.9 20.92 C12.98 14.06, 25.55 6.69, 29.73 3.54 C33.91 0.39, 32.86 1.38, 32.98 2 M33.41 1.34 C40.81 -1.57, 50.63 -0.78, 58.45 1.64 C66.27 4.06, 74.8 9.67, 80.33 15.87 C85.85 22.07, 90.43 30.68, 91.61 38.84 C92.79 46.99, 91.22 56.93, 87.41 64.83 C83.61 72.72, 75.91 81.66, 68.76 86.19 C61.61 90.73, 52.64 92.35, 44.51 92.04 C36.38 91.73, 26.93 89.22, 19.97 84.34 C13.01 79.46, 6.14 70.47, 2.73 62.75 C-0.67 55.03, -1.83 46.13, -0.46 38.03 C0.91 29.93, 5.31 20.01, 10.94 14.17 C16.58 8.33, 29.52 4.79, 33.36 2.98 C37.19 1.18, 33.85 2.61, 33.93 3.36" stroke="none" stroke-width="0" fill="#2a2524"></path><path d="M48.28 0.22 C56.02 -0.21, 65.3 2.78, 72.12 7.57 C78.95 12.36, 86.3 21.27, 89.25 28.96 C92.2 36.65, 91.55 45.65, 89.83 53.71 C88.12 61.77, 84.55 71.34, 78.97 77.32 C73.39 83.31, 64.43 87.73, 56.37 89.62 C48.31 91.51, 38.28 91.34, 30.59 88.66 C22.9 85.97, 15.2 80, 10.23 73.53 C5.25 67.05, 1.48 57.8, 0.75 49.83 C0.01 41.86, 1.97 32.84, 5.8 25.7 C9.64 18.57, 15.51 11.06, 23.74 6.99 C31.97 2.92, 48.77 1.76, 55.19 1.27 C61.61 0.78, 62.47 3.22, 62.26 4.06 M42.7 -0.71 C50.43 -1.87, 59.81 0.38, 67.31 4.59 C74.8 8.79, 83.49 16.92, 87.66 24.53 C91.82 32.14, 93.27 42.14, 92.3 50.24 C91.33 58.34, 87.25 66.57, 81.84 73.14 C76.43 79.72, 67.79 86.73, 59.84 89.7 C51.89 92.67, 41.76 92.87, 34.16 90.98 C26.56 89.08, 19.63 84.54, 14.24 78.31 C8.85 72.09, 3.68 61.8, 1.81 53.63 C-0.06 45.47, 0.4 36.58, 3.02 29.32 C5.64 22.05, 10.68 14.7, 17.52 10.04 C24.36 5.39, 39.58 2.74, 44.06 1.38 C48.55 0.01, 44.66 1.53, 44.4 1.86" stroke="#f76300" stroke-width="1" fill="none"></path></g><g stroke-linecap="round"><g transform="translate(31.99143733914684 69.92218111215698) rotate(0 21.665045298416544 -18.856875312341344)" fill-rule="evenodd"><path d="M-0.82 1.22 C0.05 -2.7, 0.18 -17.55, 3.64 -23.8 C7.11 -30.06, 14.15 -35.94, 19.97 -36.3 C25.79 -36.67, 34.42 -31.39, 38.57 -26 C42.71 -20.6, 51.19 -8.06, 44.83 -3.94 C38.48 0.19, 7.98 -1.58, 0.42 -1.26" stroke="none" stroke-width="0" fill="#2a2524" fill-rule="evenodd"></path><path d="M0.12 0.57 C0.78 -3.61, 1.45 -18.38, 4.87 -24.86 C8.29 -31.33, 15.63 -37.96, 20.65 -38.27 C25.67 -38.59, 31.29 -32.52, 34.97 -26.74 C38.65 -20.97, 48.74 -8.13, 42.75 -3.65 C36.76 0.84, 6.17 -0.42, -0.98 0.17 M-1.28 -0.17 C-0.84 -4.76, 0.42 -20.67, 3.97 -26.83 C7.51 -32.99, 14.88 -36.82, 19.99 -37.13 C25.09 -37.44, 31.04 -34.26, 34.6 -28.7 C38.16 -23.15, 47.13 -8.45, 41.35 -3.8 C35.57 0.85, 6.74 -1.16, -0.08 -0.78" stroke="#f76300" stroke-width="1" fill="none"></path></g></g><mask></mask><g stroke-linecap="round" transform="translate(42.76861315225801 12.190735862590373) rotate(0 10.908328991576695 9.544787867629566)"><path d="M9.02 -0.3 C11.33 -0.59, 14.89 0.55, 16.92 1.74 C18.96 2.93, 20.62 5.03, 21.25 6.87 C21.88 8.7, 21.55 10.94, 20.69 12.77 C19.82 14.6, 18.01 16.74, 16.07 17.84 C14.14 18.93, 11.28 19.76, 9.08 19.35 C6.87 18.94, 4.34 16.97, 2.85 15.37 C1.36 13.76, 0.19 11.77, 0.15 9.72 C0.12 7.67, 1.04 4.65, 2.64 3.07 C4.25 1.5, 8.45 0.77, 9.8 0.27 C11.14 -0.24, 10.74 -0.02, 10.71 0.02 M12.73 0.35 C14.83 0.36, 16.74 1.06, 18.26 2.45 C19.77 3.84, 21.7 6.47, 21.83 8.69 C21.97 10.9, 20.49 14.09, 19.06 15.76 C17.62 17.43, 15.47 18.37, 13.2 18.71 C10.93 19.05, 7.53 18.76, 5.43 17.81 C3.32 16.85, 1.36 14.92, 0.57 12.97 C-0.21 11.02, -0.06 8.07, 0.7 6.11 C1.47 4.14, 3.34 2.06, 5.18 1.18 C7.02 0.3, 10.6 0.93, 11.74 0.82 C12.89 0.71, 11.99 0.44, 12.03 0.52" stroke="none" stroke-width="0" fill="#2a2524"></path><path d="M11.83 0.07 C14.01 0.04, 16.16 0.72, 17.82 2.08 C19.48 3.44, 21.41 6.18, 21.79 8.22 C22.16 10.26, 21.35 12.62, 20.08 14.33 C18.8 16.03, 16.34 17.84, 14.16 18.47 C11.98 19.11, 9.12 18.91, 7.01 18.14 C4.9 17.38, 2.59 15.57, 1.52 13.88 C0.45 12.19, 0.07 9.91, 0.59 8 C1.11 6.1, 2.8 3.76, 4.63 2.44 C6.46 1.13, 10.34 0.5, 11.58 0.12 C12.82 -0.26, 12.1 -0.03, 12.06 0.17 M10.33 -0.39 C12.52 -0.61, 15.17 0.04, 17.16 1.38 C19.15 2.72, 21.64 5.49, 22.27 7.64 C22.91 9.8, 22.2 12.57, 20.97 14.31 C19.73 16.05, 17.22 17.31, 14.86 18.09 C12.51 18.87, 9.16 19.53, 6.85 18.99 C4.55 18.46, 2.05 16.61, 1.04 14.87 C0.04 13.12, 0.29 10.68, 0.8 8.5 C1.32 6.33, 2.51 3.24, 4.13 1.84 C5.76 0.45, 9.58 0.29, 10.54 0.13 C11.5 -0.03, 9.81 0.63, 9.9 0.88" stroke="#f76300" stroke-width="1" fill="none"></path></g></svg>