<svg width="2952" height="711" viewBox="0 0 2952 711" fill="none" xmlns="http://www.w3.org/2000/svg">
<path d="M0 0H2952V711H0V0Z" fill="black"/>
<path d="M749.6 498V214H945.6V265.2H810.4V334H938.4V384.4H810.4V498H749.6ZM982.337 498V283.6H1042.34V498H982.337ZM981.138 257.2V209.2H1043.14V257.2H981.138ZM1148.88 498C1131.28 498 1117.55 493.733 1107.68 485.2C1097.82 476.4 1092.88 462 1092.88 442V214H1152.88V435.6C1152.88 442 1154.35 446.533 1157.28 449.2C1160.22 451.867 1164.48 453.2 1170.08 453.2H1184.48V498H1148.88ZM1310.77 502.8C1288.9 502.8 1269.84 498.133 1253.57 488.8C1237.57 479.467 1225.04 466.533 1215.97 450C1207.17 433.2 1202.77 413.467 1202.77 390.8C1202.77 368.4 1207.17 348.8 1215.97 332C1224.77 315.2 1237.17 302.133 1253.17 292.8C1269.44 283.467 1288.5 278.8 1310.37 278.8C1331.7 278.8 1350.24 283.467 1365.97 292.8C1381.7 302.133 1393.84 315.467 1402.37 332.8C1411.17 350.133 1415.57 370.8 1415.57 394.8V406.8H1264.77C1265.57 423.867 1270.1 436.533 1278.37 444.8C1286.9 453.067 1298.1 457.2 1311.97 457.2C1332.77 457.2 1346.1 448.533 1351.97 431.2L1412.37 434.8C1406.5 456.133 1394.5 472.8 1376.37 484.8C1358.5 496.8 1336.64 502.8 1310.77 502.8ZM1264.77 370H1353.97C1353.17 354.267 1348.77 342.533 1340.77 334.8C1333.04 327.067 1322.9 323.2 1310.37 323.2C1297.84 323.2 1287.44 327.333 1279.17 335.6C1271.17 343.6 1266.37 355.067 1264.77 370ZM1427.14 498L1523.54 355.6L1427.94 214H1498.34L1560.34 309.6L1620.74 214H1691.54L1595.94 354.8L1692.74 498H1621.94L1559.54 400.8L1497.94 498H1427.14ZM1717.88 558V283.6H1775.48L1776.28 315.6C1782.68 303.6 1791.35 294.533 1802.28 288.4C1813.22 282 1825.75 278.8 1839.88 278.8C1859.88 278.8 1876.55 283.733 1889.88 293.6C1903.48 303.467 1913.62 316.933 1920.28 334C1926.95 350.8 1930.28 369.733 1930.28 390.8C1930.28 411.867 1926.82 430.933 1919.88 448C1913.22 464.8 1903.08 478.133 1889.48 488C1876.15 497.867 1859.48 502.8 1839.48 502.8C1826.15 502.8 1814.02 499.733 1803.08 493.6C1792.15 487.467 1783.75 478.933 1777.88 468V558H1717.88ZM1823.08 456.8C1837.22 456.8 1848.28 450.933 1856.28 439.2C1864.55 427.467 1868.68 411.333 1868.68 390.8C1868.68 370.267 1864.55 354.133 1856.28 342.4C1848.28 330.667 1837.22 324.8 1823.08 324.8C1808.95 324.8 1797.88 330.4 1789.88 341.6C1781.88 352.8 1777.88 369.2 1777.88 390.8C1777.88 412.4 1781.75 428.8 1789.48 440C1797.48 451.2 1808.68 456.8 1823.08 456.8ZM1967.49 498V283.6H2024.29L2025.89 326.4C2030.16 311.467 2036.43 300.667 2044.69 294C2052.96 287.067 2063.63 283.6 2076.69 283.6H2096.29V333.2H2076.69C2059.89 333.2 2047.49 336.667 2039.49 343.6C2031.49 350.267 2027.49 361.6 2027.49 377.6V498H1967.49ZM2217.8 502.8C2195.93 502.8 2176.87 498.133 2160.6 488.8C2144.6 479.467 2132.07 466.533 2123 450C2114.2 433.2 2109.8 413.467 2109.8 390.8C2109.8 368.4 2114.2 348.8 2123 332C2131.8 315.2 2144.2 302.133 2160.2 292.8C2176.47 283.467 2195.53 278.8 2217.4 278.8C2238.73 278.8 2257.27 283.467 2273 292.8C2288.73 302.133 2300.87 315.467 2309.4 332.8C2318.2 350.133 2322.6 370.8 2322.6 394.8V406.8H2171.8C2172.6 423.867 2177.13 436.533 2185.4 444.8C2193.93 453.067 2205.13 457.2 2219 457.2C2239.8 457.2 2253.13 448.533 2259 431.2L2319.4 434.8C2313.53 456.133 2301.53 472.8 2283.4 484.8C2265.53 496.8 2243.67 502.8 2217.8 502.8ZM2171.8 370H2261C2260.2 354.267 2255.8 342.533 2247.8 334.8C2240.07 327.067 2229.93 323.2 2217.4 323.2C2204.87 323.2 2194.47 327.333 2186.2 335.6C2178.2 343.6 2173.4 355.067 2171.8 370ZM2451.28 502.8C2417.95 502.8 2392.75 496 2375.68 482.4C2358.88 468.8 2349.68 451.467 2348.08 430.4L2408.88 428.4C2410.75 438.533 2415.01 446.4 2421.68 452C2428.35 457.6 2438.21 460.4 2451.28 460.4C2461.95 460.4 2470.21 458.667 2476.08 455.2C2482.21 451.733 2485.28 446.4 2485.28 439.2C2485.28 434.667 2484.21 430.933 2482.08 428C2479.95 424.8 2475.68 422.133 2469.28 420C2463.15 417.6 2453.95 415.467 2441.68 413.6C2419.01 409.867 2401.28 405.2 2388.48 399.6C2375.68 394 2366.61 387.067 2361.28 378.8C2355.95 370.267 2353.28 359.867 2353.28 347.6C2353.28 327.067 2361.15 310.533 2376.88 298C2392.88 285.2 2416.75 278.8 2448.48 278.8C2478.88 278.8 2501.95 285.733 2517.68 299.6C2533.41 313.467 2542.75 331.067 2545.68 352.4L2485.28 354.8C2483.95 344.4 2480.08 336.267 2473.68 330.4C2467.28 324.267 2458.75 321.2 2448.08 321.2C2437.41 321.2 2429.15 323.467 2423.28 328C2417.68 332.267 2414.88 338 2414.88 345.2C2414.88 352.933 2417.81 358.8 2423.68 362.8C2429.81 366.533 2440.21 369.467 2454.88 371.6C2477.81 375.067 2495.95 379.6 2509.28 385.2C2522.88 390.8 2532.61 397.867 2538.48 406.4C2544.35 414.933 2547.28 425.467 2547.28 438C2547.28 458.8 2538.48 474.8 2520.88 486C2503.55 497.2 2480.35 502.8 2451.28 502.8ZM2675.89 502.8C2642.56 502.8 2617.36 496 2600.29 482.4C2583.49 468.8 2574.29 451.467 2572.69 430.4L2633.49 428.4C2635.36 438.533 2639.62 446.4 2646.29 452C2652.96 457.6 2662.82 460.4 2675.89 460.4C2686.56 460.4 2694.82 458.667 2700.69 455.2C2706.82 451.733 2709.89 446.4 2709.89 439.2C2709.89 434.667 2708.82 430.933 2706.69 428C2704.56 424.8 2700.29 422.133 2693.89 420C2687.76 417.6 2678.56 415.467 2666.29 413.6C2643.62 409.867 2625.89 405.2 2613.09 399.6C2600.29 394 2591.22 387.067 2585.89 378.8C2580.56 370.267 2577.89 359.867 2577.89 347.6C2577.89 327.067 2585.76 310.533 2601.49 298C2617.49 285.2 2641.36 278.8 2673.09 278.8C2703.49 278.8 2726.56 285.733 2742.29 299.6C2758.02 313.467 2767.36 331.067 2770.29 352.4L2709.89 354.8C2708.56 344.4 2704.69 336.267 2698.29 330.4C2691.89 324.267 2683.36 321.2 2672.69 321.2C2662.02 321.2 2653.76 323.467 2647.89 328C2642.29 332.267 2639.49 338 2639.49 345.2C2639.49 352.933 2642.42 358.8 2648.29 362.8C2654.42 366.533 2664.82 369.467 2679.49 371.6C2702.42 375.067 2720.56 379.6 2733.89 385.2C2747.49 390.8 2757.22 397.867 2763.09 406.4C2768.96 414.933 2771.89 425.467 2771.89 438C2771.89 458.8 2763.09 474.8 2745.49 486C2728.16 497.2 2704.96 502.8 2675.89 502.8Z" fill="white"/>
<g clip-path="url(#clip0_46_47)">
<path fill-rule="evenodd" clip-rule="evenodd" d="M203.461 493.978L393.593 553.301L569.658 458.793L575.04 196.441L363.918 159.361L199.327 220.604L192.942 498.566" fill="#FF6913"/>
<path d="M202.923 495.723C280.864 507.369 357.02 533.152 399.855 556.243M202.458 491.11C244.682 503.977 284.509 522.954 406.412 550.732M398.167 554.398C465.394 519.886 533.354 484.826 578.098 466.798M399.097 551.63C457.932 530.908 517.11 501.434 565.523 465.476M577.878 461.361C559.897 412.736 570.367 349.299 564.887 204.321M574.306 471.336C575.921 408.397 573.523 343.788 567.114 193.748M577.193 188.137C499.202 180.083 418.326 163.051 365.802 155.845M572.642 201.677C510.725 189.933 459.106 176.891 376.59 152.803M365.141 161.505C311.786 186.865 252.217 202.002 213.026 224.195M371.698 156.169C333.975 169.56 302.661 181.754 200.966 221.676M201.039 219.307C201.92 301.073 209.797 379.821 200.77 495.873M207.742 222.723C203.094 295.786 202.996 369.223 200.672 495.574" stroke="black" stroke-linecap="round"/>
<path fill-rule="evenodd" clip-rule="evenodd" d="M399.907 273.637L568.143 188.729L569.44 468.986L401.962 548.208L406.267 276.13" fill="#FF6913"/>
<path d="M404.261 273.287C462.68 246.032 517.063 223.49 559.557 202.444M402.475 276.379C443.941 262.016 493.211 234.96 572.107 200.798M569.782 193.043C572.669 248.7 574.137 313.883 571.324 463.973M567.85 199.9C567.801 254.286 559.899 306.327 565.183 470.831M561.783 475.02C535.533 491.029 488.074 509.581 395.234 542.821M570.688 468.287C507.987 496.839 442.914 526.962 406.072 551.399M404.359 546.761C393.62 459.485 392.763 378.243 401.056 288.423M399.32 553.244C402.451 467.165 405.24 376.498 406.536 273.786" stroke="black" stroke-linecap="round"/>
<path fill-rule="evenodd" clip-rule="evenodd" d="M201.059 211.517L403.667 280.016L405.257 551.445L204.973 487.908L202.6 212.913" fill="#FF6913"/>
<path d="M202.625 217.053C265.765 245.729 327.561 267.174 399.092 279.094M199.053 223.586C260.603 236.478 316.968 258.397 398.725 276.052M409.563 271.339C412.841 366.47 408.413 453.921 396.964 544.688M406.383 280.016C398.774 357.019 400.658 444.619 402.419 557.031M409.416 560.073C353.541 548.702 305.396 520.45 208.325 499.703M405.477 549.725C327.805 527.507 261.729 510.276 202.062 493.394M195.603 485.265C193.818 432.625 198.833 387.217 202.502 222.215M202.747 492.297C209.181 380.833 208.887 275.054 204.533 215.507" stroke="black" stroke-linecap="round"/>
<path fill-rule="evenodd" clip-rule="evenodd" d="M207.213 219.978L397.981 275.735L347.268 358.846L140.33 292.367L210.027 224.74" fill="#FF6913"/>
<path d="M202.981 222.995C245.034 239.877 297.949 248.904 396.538 276.782M209.513 217.484C258.636 234.491 300.371 242.645 399.963 277.855M407.057 275.61C388.073 295.135 361.604 312.89 343.378 359.994M394.483 274.289C376.355 311.817 355.781 343.711 340.247 357.849M337.409 368.298C259.101 333.961 196.767 326.704 144.929 303.215M339.611 357.75C282.782 340.644 215.653 322.266 134.63 299.549M132.452 297.479C156.598 287.555 177.563 258.903 214.87 211.699M143.265 294.462C167.509 263.566 191.777 234.765 208.412 220.377" stroke="black" stroke-linecap="round"/>
<path fill-rule="evenodd" clip-rule="evenodd" d="M206.256 220.064L402.993 277.742L345.65 357.911L143.629 307.889L202.146 223.58" fill="#FF6913"/>
<path d="M198.061 227.52C256.578 236.622 311.572 252.008 395.116 275.398M210.61 225.875C278.326 242.532 358.078 268.441 397.733 283.676M402.259 276.57C379.312 290.908 375.496 316.966 351.179 371.776M396.119 283.452C376.352 311.306 358.371 331.404 348.096 365.99M336.99 357.387C276.051 353.273 198.843 325.17 141.28 300.658M347.827 365.965C297.701 349.558 244.126 332.551 138.418 298.713M138.222 311.555C158.747 284.848 182.991 255.05 214.035 224.304M143.702 296.918C164.423 271.907 186.245 250.287 208.898 225.176" stroke="black" stroke-linecap="round"/>
<path fill-rule="evenodd" clip-rule="evenodd" d="M402.796 281.437L567.29 197.378L629.33 290.714L457.057 370.01L396.191 282.46" fill="#FF6913"/>
<path d="M395.629 284.379C456.029 253.783 511.391 221.79 574.605 210.369M395.262 281.337C445.828 259.219 489.422 239.694 562.52 207.975M557.064 195.482C583.118 225.855 607.093 257.623 628.352 275.976M562.52 207.851C575.926 219.022 597.43 243.734 629.037 281.312M632.462 293.88C569.443 317.669 504.419 343.054 455.663 359.612M626.199 287.571C584.611 305.675 550.092 321.035 459.357 364.549M462.977 370.908C452.727 338.142 433.107 323.579 403.041 292.334M465.008 364.2C449.278 350.485 435.553 334.227 396.925 287.521" stroke="black" stroke-linecap="round"/>
<path fill-rule="evenodd" clip-rule="evenodd" d="M368.883 153.948L364.406 272.519L206.469 222.024L359.318 157.888" fill="#FF6913"/>
<path d="M366.07 150.931C378.4 197.187 367.782 232.771 378.889 261.697M368.687 159.209C367.391 188.41 370.155 214.019 368.59 265.163M377.103 277.282C337.007 250.276 292.287 241.623 210.554 214.293M374.021 271.497C310.831 245.738 247.054 226.661 200.769 225.041M205.588 220.502C262.124 184.993 326.414 173.498 372.479 155.12M202.701 218.582C262.466 193.048 323.968 171.129 373.923 154.322M369.397 153.873C369.715 154.796 369.568 155.419 369.911 155.993M369.152 153.923C369.275 154.347 369.764 154.397 370.351 155.544" stroke="black" stroke-linecap="round"/>
<path fill-rule="evenodd" clip-rule="evenodd" d="M367.281 161.802L562.461 195.8L401.929 284.622L364.632 268.694L382.707 161.291" fill="#FF6913"/>
<path d="M381.216 159.543C429.615 178.304 489.85 170.888 562.52 200.277M369.386 163.142C429.997 169.68 487.561 176.697 562.1 197.397M564.438 186.751C511.693 218.421 475.061 235.647 405.688 267.212M567.449 191.13C529.611 210.762 488.801 239.364 407.005 277.698M395.844 274.535C389.348 280.994 383.202 272.861 372.555 264.473M399.268 276.148C391.546 274.787 385.49 272.032 373.849 273.237M379.04 276.9C366.266 256.277 364.442 229.194 366.149 165.093M371.416 275.57C370.389 227.783 368.448 191.587 369.574 157.28" stroke="black" stroke-linecap="round"/>
</g>
<defs>
<clipPath id="clip0_46_47">
<rect width="550" height="459" fill="white" transform="translate(108 126)"/>
</clipPath>
</defs>
</svg>
